<svg xmlns="http://www.w3.org/2000/svg" version="1.1" xmlns:xlink="http://www.w3.org/1999/xlink" width="122" height="80"><svg width="122" height="80" viewBox="0 0 122 80" fill="none" xmlns="http://www.w3.org/2000/svg">
<path d="M22.7519 78.24V10.368H-9.56059e-05V1.43999H55.1039V10.368H32.3519V78.24H22.7519ZM93.6187 79.584C85.6827 79.584 79.5067 76.224 75.0907 69.504C70.7387 62.784 68.5627 52.896 68.5627 39.84C68.5627 26.592 70.8987 16.64 75.5707 9.98399C80.2427 3.32799 87.1547 -1.52588e-05 96.3067 -1.52588e-05C101.299 -1.52588e-05 105.555 1.02398 109.075 3.07199C112.659 5.05599 115.475 7.99999 117.523 11.904C119.635 15.744 120.915 20.448 121.363 26.016H112.435C111.539 20.448 109.747 16.224 107.059 13.344C104.435 10.4 100.851 8.92798 96.3067 8.92798C90.1627 8.92798 85.5867 11.456 82.5787 16.512C79.6347 21.504 78.1627 29.28 78.1627 39.84C78.1627 50.528 79.6027 58.432 82.4827 63.552C85.4267 68.672 89.9387 71.232 96.0187 71.232C99.0267 71.232 101.683 70.272 103.987 68.352C106.355 66.432 108.211 63.84 109.555 60.576C110.963 57.248 111.667 53.504 111.667 49.344H94.4827V40.416H119.731V78.24H111.667V71.52H108.979C107.763 74.08 105.811 76.064 103.123 77.472C100.499 78.88 97.3307 79.584 93.6187 79.584Z" fill="black"></path>
</svg><style>@media (prefers-color-scheme: light) { :root { filter: none; } }
@media (prefers-color-scheme: dark) { :root { filter: invert(100%); } }
</style></svg>